# xmcd
#
# Track frame offsets:
#	150
#	13319
#	25489
#	42496
#	59605
#	75972
#	85908
#	98449
#	115029
#	133558
#	146523
#	155313
#
# Disc length: 2310 seconds
# Revision: 0
# Processed by: cddbd v1.5.2PL0 Copyright (c) Steve Scherf et al.
# Submitted via: dBpowerAMP V12.0
#
DISCID=9209040c
DTITLE=Alan Bibey and Grasstowne - Gonna Rise and Shine
DYEAR=2019
DGENRE=Bluegrass
TTITLE0=Born Again
TTITLE1=When Jesus Swings the Wrecking Ball
TTITLE2=Nobody's Fault But Mine
TTITLE3=Bloodstained Bible
TTITLE4=Gonna Rise and Shine
TTITLE5=Stormy Waters
TTITLE6=Keep Your Eyes on the Prize
TTITLE7=I'll Live in Glory
TTITLE8=I'd Rather Have Jesus
TTITLE9=In the Sweet By and By
TTITLE10=New Life
TTITLE11=He's Right There
EXTD=
EXTT0=
EXTT1=
EXTT2=
EXTT3=
EXTT4=
EXTT5=
EXTT6=
EXTT7=
EXTT8=
EXTT9=
EXTT10=
EXTT11=
PLAYORDER=
